<?xml version="1.0" standalone="no"?>
<!DOCTYPE svg PUBLIC "-//W3C//DTD SVG 20010904//EN"
 "http://www.w3.org/TR/2001/REC-SVG-20010904/DTD/svg10.dtd">
<svg version="1.0" xmlns="http://www.w3.org/2000/svg"
 width="413.000000pt" height="531.000000pt" viewBox="0 0 413.000000 531.000000"
 preserveAspectRatio="xMidYMid meet">

<g transform="translate(0.000000,531.000000) scale(0.100000,-0.100000)"
fill="#000000" stroke="none">
<path d="M2005 5000 c-3 -5 -27 -10 -52 -10 -49 0 -183 -29 -183 -40 0 -4 -43
-24 -95 -45 -52 -21 -95 -42 -95 -47 0 -4 -6 -8 -14 -8 -7 0 -26 -17 -42 -37
-16 -21 -51 -58 -79 -83 -79 -71 -138 -136 -165 -180 -14 -23 -47 -75 -73
-115 -29 -44 -46 -79 -41 -86 4 -8 3 -9 -4 -5 -7 4 -17 -7 -27 -30 -21 -50
-18 -56 5 -14 11 19 19 32 20 29 0 -8 -57 -166 -65 -179 -3 -6 0 -19 8 -30 9
-13 13 -38 11 -68 -3 -38 -2 -41 5 -17 9 33 15 24 25 -34 5 -26 3 -32 -8 -28
-19 8 -25 -12 -14 -42 5 -14 6 -31 4 -38 -3 -8 1 -16 9 -19 8 -3 17 -22 21
-42 3 -21 8 -45 11 -54 2 -10 -1 -18 -7 -18 -6 0 -8 5 -5 10 3 6 4 10 1 10 -2
0 -14 -15 -26 -34 -23 -38 -25 -122 -2 -131 14 -5 16 -53 3 -74 -6 -9 -3 -19
9 -31 18 -18 33 -133 32 -259 0 -35 4 -71 9 -80 5 -9 14 -27 19 -41 20 -47 40
-76 40 -59 0 9 9 19 20 22 21 5 24 -1 36 -68 3 -22 13 -55 21 -73 14 -30 14
-34 -2 -52 -12 -14 -16 -28 -12 -49 7 -34 -15 -174 -31 -193 -16 -21 -18 -54
-3 -72 12 -14 12 -24 1 -59 -7 -23 -17 -58 -23 -77 -25 -80 -115 -145 -247
-179 -376 -94 -583 -150 -715 -193 -177 -56 -226 -89 -245 -158 -35 -131 -40
-255 -40 -1092 l0 -828 930 0 c512 0 930 1 930 3 0 16 -69 465 -104 677 -25
151 -50 311 -55 355 -20 164 -73 535 -97 680 -15 83 -30 179 -34 215 -5 36
-15 117 -24 180 -27 210 -30 349 -12 434 10 42 21 76 26 76 4 0 10 -60 12
-132 4 -109 10 -147 32 -212 26 -77 125 -290 131 -284 4 4 -12 60 -55 193 -16
50 -31 109 -34 132 -3 23 -9 48 -12 57 -5 12 -2 15 10 10 9 -3 23 -1 32 6 11
10 18 10 26 2 7 -7 23 -12 36 -12 13 0 20 -4 17 -10 -3 -5 3 -10 14 -10 18 0
55 -13 111 -39 8 -4 60 -9 116 -10 89 -2 111 1 195 29 52 17 103 35 114 40 11
5 40 17 65 28 25 10 52 25 60 33 8 8 35 23 59 34 24 11 50 26 58 33 19 19 46
-3 37 -30 -3 -11 -7 -30 -9 -41 -2 -22 -38 -112 -77 -197 -24 -51 -69 -192
-64 -197 8 -8 58 92 102 203 93 241 98 258 98 386 1 65 4 118 8 118 31 0 47
-237 23 -360 -19 -98 -59 -262 -90 -375 -14 -49 -52 -198 -86 -330 -33 -132
-71 -276 -84 -320 -13 -44 -38 -134 -55 -200 -32 -124 -81 -298 -131 -465 -15
-52 -62 -225 -104 -383 -42 -158 -78 -294 -82 -302 -4 -13 131 -15 1046 -15
l1051 0 -2 977 -3 978 -80 26 c-44 15 -120 41 -170 59 -49 17 -180 58 -290 90
-225 65 -259 79 -295 112 -13 13 -28 22 -32 20 -5 -1 -7 1 -7 5 3 19 -3 32
-25 54 -13 13 -36 49 -52 79 -15 30 -49 87 -74 125 -85 127 -117 180 -128 210
-30 84 -64 223 -66 268 0 33 -7 57 -16 64 -11 9 -12 12 -2 13 8 0 12 9 10 23
-2 12 4 29 13 37 22 20 49 112 49 165 0 39 13 122 26 170 4 16 3 17 -5 5 -6
-8 -11 -10 -11 -4 0 6 3 14 8 18 4 4 7 13 7 19 1 7 6 11 13 9 7 -1 12 4 13 10
0 7 2 27 5 43 11 81 4 154 -20 202 -13 26 -29 59 -35 73 -13 28 -9 -1 5 -34 5
-14 4 -17 -5 -11 -18 11 -41 69 -40 102 l1 28 13 -30 c8 -16 14 -24 15 -17 0
7 -5 23 -12 35 -7 12 -16 76 -20 142 -12 192 -23 278 -40 310 -9 17 -30 65
-47 109 -35 87 -124 217 -198 287 -46 44 -169 131 -230 162 -15 8 -42 17 -58
20 -17 3 -59 16 -95 30 -71 26 -232 38 -245 17z m195 -438 c3 0 12 -3 20 -6
30 -9 76 -17 98 -17 15 1 26 -6 29 -18 3 -11 11 -17 18 -15 7 3 16 -4 20 -15
3 -12 11 -19 16 -16 5 4 13 -4 18 -17 5 -13 16 -30 25 -37 9 -7 16 -20 16 -27
0 -8 4 -14 8 -14 5 0 17 -17 28 -37 10 -21 25 -44 32 -52 7 -7 11 -20 8 -27
-3 -8 -1 -14 5 -14 6 0 8 -7 5 -16 -4 -10 -2 -13 6 -8 7 5 9 0 6 -14 -4 -12
-3 -22 2 -22 13 0 38 -149 26 -154 -7 -3 -7 -7 2 -14 23 -16 -2 -59 -35 -60
-15 0 -48 -5 -72 -11 -25 -5 -65 -7 -90 -4 -58 7 -122 -10 -147 -39 -10 -12
-13 -18 -7 -14 9 5 11 2 7 -9 -4 -9 -13 -14 -20 -11 -8 3 -14 1 -14 -4 0 -6
-7 -10 -15 -10 -8 0 -15 -5 -15 -11 0 -6 9 -9 20 -6 13 3 20 0 20 -9 0 -8 5
-14 11 -14 5 0 7 -5 4 -10 -4 -6 -11 -8 -16 -5 -5 4 -9 0 -9 -7 0 -7 -15 -25
-34 -40 -59 -47 -71 -153 -24 -215 17 -21 40 -3 36 28 -4 28 6 39 38 39 8 0
11 -6 7 -16 -3 -8 -12 -13 -20 -10 -9 4 -13 1 -11 -6 3 -7 18 -16 34 -20 16
-3 56 -16 88 -27 33 -12 82 -21 110 -21 50 0 71 8 159 58 21 12 44 22 53 22 8
0 23 13 32 30 28 49 47 39 83 -47 36 -88 42 -151 23 -247 -13 -69 -60 -169
-96 -206 -67 -68 -100 -91 -113 -80 -17 14 -55 4 -55 -14 0 -8 17 -16 40 -20
34 -5 40 -10 40 -30 0 -46 -19 -74 -112 -168 -51 -52 -127 -130 -169 -174
-103 -109 -142 -127 -279 -128 -94 0 -111 3 -160 27 -57 27 -132 89 -233 189
-32 32 -62 58 -65 58 -4 0 -18 9 -31 19 -14 10 -30 17 -36 15 -17 -7 -121 109
-135 150 -16 49 -8 66 32 66 18 0 40 5 48 10 10 6 11 10 3 10 -7 0 -13 7 -13
15 0 13 -13 20 -23 13 -2 -2 -24 19 -50 45 -26 26 -52 45 -57 42 -6 -4 -13 2
-17 12 -4 10 -9 20 -12 23 -48 42 -47 303 2 368 5 6 7 12 4 12 -3 0 3 21 13
48 26 67 45 66 65 -3 16 -53 20 -57 70 -80 73 -34 146 -41 222 -21 84 21 144
48 120 53 -9 3 -15 8 -13 11 2 4 -35 6 -82 6 -48 -1 -89 1 -92 5 -3 3 -18 11
-35 17 -24 8 -29 15 -27 34 3 31 22 51 29 31 3 -7 18 -27 33 -44 l27 -31 104
2 c56 2 105 4 107 6 2 3 -1 13 -7 24 -15 29 14 23 47 -9 l25 -24 -5 50 c-5 42
-12 55 -44 82 -20 18 -43 33 -49 33 -7 0 -18 7 -25 15 -7 8 -20 15 -29 14 -12
0 -12 -2 3 -8 39 -15 -4 -22 -61 -11 -52 11 -107 9 -165 -5 -17 -4 -27 0 -36
15 -12 19 -10 24 9 41 33 29 61 32 147 20 142 -20 152 -21 152 -8 -2 50 -64
85 -155 88 -27 1 -76 7 -108 15 -33 7 -65 10 -72 8 -27 -11 -43 65 -39 181 5
137 6 145 18 145 5 0 7 3 3 6 -3 4 1 13 9 21 8 9 13 21 10 28 -5 15 93 126
115 129 10 1 24 8 32 14 17 14 155 21 175 8 7 -4 17 -4 23 -1 9 6 96 23 144
28 12 1 32 9 45 17 63 39 129 54 175 39 11 -4 22 -7 25 -7z m-1074 -429 c-11
-11 -17 4 -9 23 7 18 8 18 11 1 2 -10 1 -21 -2 -24z m21 -215 c-3 -8 -6 -5 -6
6 -1 11 2 17 5 13 3 -3 4 -12 1 -19z m1357 -73 c6 -11 15 -23 21 -27 21 -15
-12 -23 -102 -23 -52 -1 -97 3 -99 7 -3 4 2 8 10 8 9 0 16 5 16 10 0 6 -4 10
-10 10 -18 0 -11 15 13 27 12 6 49 10 81 9 48 -1 61 -5 70 -21z m-867 -92 c4
2 17 1 28 -4 14 -5 2 -7 -35 -7 -30 0 -47 2 -37 5 10 3 14 9 10 16 -4 7 0 7
10 -1 9 -8 20 -12 24 -9z m797 2 c18 -14 16 -15 -30 -15 -47 1 -48 1 -24 15
31 18 31 18 54 0z m-764 -55 c0 -5 -5 -10 -11 -10 -5 0 -7 5 -4 10 3 6 8 10
11 10 2 0 4 -4 4 -10z m700 -6 c0 -8 -5 -12 -10 -9 -6 4 -8 11 -5 16 9 14 15
11 15 -7z m35 6 c3 -5 1 -10 -4 -10 -6 0 -11 5 -11 10 0 6 2 10 4 10 3 0 8 -4
11 -10z m-765 -4 c0 -3 -4 -8 -10 -11 -5 -3 -10 -1 -10 4 0 6 5 11 10 11 6 0
10 -2 10 -4z m126 -28 l36 -32 -58 -12 c-80 -17 -80 -17 -56 9 12 13 22 33 22
45 0 30 13 28 56 -10z m554 13 c0 -10 10 -31 22 -47 21 -26 21 -27 3 -20 -11
4 -42 10 -69 13 l-50 6 39 34 c44 38 55 41 55 14z m174 -14 c15 -23 -7 -43
-68 -61 -49 -15 -54 -12 -14 8 13 6 30 26 38 43 16 35 27 37 44 10z m-1339 3
c3 -5 1 -10 -4 -10 -6 0 -11 5 -11 10 0 6 2 10 4 10 3 0 8 -4 11 -10z m1045
-29 c-14 -27 -30 -36 -30 -17 0 8 8 20 18 25 23 14 24 14 12 -8z m95 -31 c18
-8 17 -9 -7 -9 -16 -1 -28 4 -28 9 0 12 8 12 35 0z m661 -107 c-10 -10 -19 5
-10 18 6 11 8 11 12 0 2 -7 1 -15 -2 -18z m-86 -277 c0 -29 -3 -33 -20 -29
-24 6 -26 26 -4 47 22 22 24 21 24 -18z m53 -6 c-3 -11 -7 -20 -9 -20 -2 0 -4
9 -4 20 0 11 4 20 9 20 5 0 7 -9 4 -20z m-6 -52 c-3 -8 -6 -5 -6 6 -1 11 2 17
5 13 3 -3 4 -12 1 -19z m-67 -67 c-1 -12 -5 -11 -20 8 -11 13 -20 31 -20 40 1
12 5 11 20 -8 11 -13 20 -31 20 -40z m-1590 14 c-7 -8 -17 -12 -22 -9 -6 4 -5
10 3 15 22 14 33 10 19 -6z m104 -250 c3 -8 1 -15 -4 -15 -6 0 -10 7 -10 15 0
8 2 15 4 15 2 0 6 -7 10 -15z m1504 -110 c-3 -3 -9 2 -12 12 -6 14 -5 15 5 6
7 -7 10 -15 7 -18z m12 -1419 c0 -6 -7 -2 -15 8 -8 11 -15 31 -15 45 1 24 2
24 15 -8 8 -18 15 -38 15 -45z m95 13 c-8 -12 -56 -32 -62 -25 -5 4 45 33 60
35 5 1 5 -4 2 -10z"/>
<path d="M1905 3174 c-33 -17 -67 -18 -83 -2 -7 7 -12 8 -12 2 0 -34 83 -64
129 -47 17 7 34 4 62 -10 35 -17 45 -18 82 -7 43 12 75 18 113 19 31 1 73 38
56 49 -28 19 -115 13 -159 -10 l-42 -22 -59 21 c-53 19 -63 20 -87 7z"/>
<path d="M2342 3008 c-21 -21 -32 -23 -132 -24 -110 -1 -137 -7 -110 -24 10
-7 -16 -10 -77 -10 -78 0 -91 2 -87 15 5 12 -6 15 -62 15 -38 0 -89 7 -113 16
-51 18 -87 12 -96 -15 -11 -36 3 -49 46 -44 35 5 45 2 72 -24 18 -16 44 -34
58 -40 22 -10 25 -9 24 7 -1 10 -12 28 -26 40 l-24 22 25 -6 c90 -21 176 -28
275 -22 99 6 108 5 90 -8 -11 -9 -27 -16 -35 -16 -8 0 -22 -5 -30 -11 -12 -8
-9 -9 10 -4 24 6 24 5 6 -9 -20 -16 -20 -16 0 -17 35 -2 49 3 102 38 34 22 59
32 72 29 11 -3 28 -8 39 -11 15 -5 19 2 25 41 5 43 -5 84 -22 84 -4 0 -18 -10
-30 -22z"/>
<path d="M2470 3020 c-12 -8 -11 -10 7 -10 12 0 25 5 28 10 8 13 -15 13 -35 0z"/>
<path d="M2033 2963 c9 -2 23 -2 30 0 6 3 -1 5 -18 5 -16 0 -22 -2 -12 -5z"/>
<path d="M2065 2852 c-38 -8 -37 -20 1 -15 22 3 40 6 42 8 6 6 -24 11 -43 7z"/>
<path d="M1980 2780 c-11 -7 6 -10 59 -10 41 0 72 3 68 6 -11 11 -112 15 -127
4z"/>
</g>
</svg>
